# xmcd
#
# Track frame offsets:
#	150
#	12995
#	24925
#	40690
#	52690
#	67412
#	81712
#	93635
#	106702
#	118715
#	128720
#	144165
#	155020
#	165830
#	177370
#	193862
#	205309
#	216965
#
# Disc length: 3239
#
# Revision: 2
# Processed by: cddbd v1.5.1PL0 Copyright (c) Steve Scherf et al.
# Submitted via: ExactAudioCopy v0.90b3
# Normalized: r0:TRMNUM;r1:DSETVAR1,TDELIM( - )
#
DISCID=f70ca512
DTITLE=Various Artist - Soul Hits
DYEAR=1900
DGENRE=Soul
TTITLE0=Percy Sledge - When A Man Loves A Woman
TTITLE1=Sam and Dave - Hold On, I'm Coming
TTITLE2=Eddie Floyd - Knock On Wood
TTITLE3=Aaron Neville - Tell It Like It Is
TTITLE4=Esther Phillips - Release Me
TTITLE5=Wilson Pickett - It's Too Late
TTITLE6=The Foundations - Build Me Up Buttercup
TTITLE7=Lloyd Price - Stagger Lee
TTITLE8=Ray Charles - Goin' Down Slow
TTITLE9=The Drifters - Save The Last Dance For Me
TTITLE10=Mary Wells - My Guy
TTITLE11=The Coasters - As Quiet As It's Kept
TTITLE12=The Platters - Smoke Gets In Your Eyes
TTITLE13=Betty Everett - With You I Stand
TTITLE14=The Ink Spots - If I Didn't Care
TTITLE15=The Corvelles - He's So Fine
TTITLE16=The Drifters - Under The Boardwalk
TTITLE17=James Brown - Georgia On My Mind (Live)
EXTD=
EXTT0=
EXTT1=
EXTT2=
EXTT3=
EXTT4=
EXTT5=
EXTT6=
EXTT7=
EXTT8=
EXTT9=
EXTT10=
EXTT11=
EXTT12=
EXTT13=
EXTT14=
EXTT15=
EXTT16=
EXTT17=
PLAYORDER=
